<svg xmlns="http://www.w3.org/2000/svg" viewBox="0 0 512 512">
  <defs>
    <linearGradient id="bg" x1="0" y1="0" x2="1" y2="1">
      <stop offset="0%" stop-color="#fff4ea" />
      <stop offset="100%" stop-color="#ffe9d2" />
    </linearGradient>
    <linearGradient id="bottleBody" x1="0" y1="0" x2="0" y2="1">
      <stop offset="0%" stop-color="#ffffff" />
      <stop offset="100%" stop-color="#f7fbff" />
    </linearGradient>
    <linearGradient id="milk" x1="0" y1="0" x2="0" y2="1">
      <stop offset="0%" stop-color="#fff7e8" />
      <stop offset="100%" stop-color="#ffeecf" />
    </linearGradient>
    <linearGradient id="cap" x1="0" y1="0" x2="0" y2="1">
      <stop offset="0%" stop-color="#ffd6dc" />
      <stop offset="100%" stop-color="#f3aeb8" />
    </linearGradient>
  </defs>

  <rect width="512" height="512" rx="120" fill="url(#bg)" />
  <rect x="30" y="30" width="452" height="452" rx="108" fill="none" stroke="#efcfaa" stroke-width="12" />

  <ellipse cx="256" cy="420" rx="120" ry="26" fill="#d2b495" opacity="0.35" />

  <g transform="translate(256 250) rotate(-8) translate(-256 -250)">
    <rect x="210" y="72" width="92" height="58" rx="28" fill="#ffe6ea" stroke="#e6b3bc" stroke-width="10" />
    <rect x="226" y="58" width="60" height="32" rx="14" fill="#ffd4db" stroke="#e6b3bc" stroke-width="8" />
    <path d="M234 56 Q256 24 278 56" fill="#f6c2ca" stroke="#e0a7b1" stroke-width="8" />

    <rect x="182" y="118" width="148" height="274" rx="68" fill="url(#bottleBody)" stroke="#9bc1db" stroke-width="10" />
    <rect x="194" y="214" width="124" height="168" rx="56" fill="url(#milk)" />
    <line x1="194" y1="214" x2="318" y2="214" stroke="#f0d9b8" stroke-width="6" />

    <rect x="182" y="118" width="148" height="52" rx="26" fill="url(#cap)" stroke="#e39aa8" stroke-width="8" />
    <line x1="192" y1="144" x2="320" y2="144" stroke="#f8dae0" stroke-width="5" stroke-dasharray="6 8" />

    <line x1="212" y1="182" x2="212" y2="360" stroke="#9bc1db" stroke-width="4" />
    <line x1="236" y1="182" x2="236" y2="360" stroke="#9bc1db" stroke-width="4" />
    <line x1="260" y1="182" x2="260" y2="360" stroke="#9bc1db" stroke-width="4" />
    <line x1="284" y1="182" x2="284" y2="360" stroke="#9bc1db" stroke-width="4" />
    <line x1="308" y1="182" x2="308" y2="360" stroke="#9bc1db" stroke-width="4" />

    <circle cx="256" cy="272" r="14" fill="#ffd4db" stroke="#e4a3b0" stroke-width="6" />
    <path d="M246 272h20M256 262v20" stroke="#ffffff" stroke-width="4" stroke-linecap="round" />
  </g>
</svg>
